<svg width="22" height="212" viewBox="0 0 22 212" fill="none" xmlns="http://www.w3.org/2000/svg">
<g clip-path="url(#clip0_467_512)">
<path d="M14.5125 198.875C14.5125 199.637 13.95 200.262 13.2375 200.262C12.5375 200.262 11.9625 199.637 11.9625 198.875C11.9625 198.113 12.525 197.488 13.2375 197.488C13.95 197.488 14.5125 198.113 14.5125 198.875ZM8.675 197.488C7.9625 197.488 7.4 198.113 7.4 198.875C7.4 199.637 7.975 200.262 8.675 200.262C9.3875 200.262 9.95 199.637 9.95 198.875C9.9625 198.113 9.3875 197.488 8.675 197.488ZM21.875 189.575V212C18.7259 209.217 19.733 210.138 16.075 206.737L16.7375 209.05H2.5625C1.15 209.05 0 207.9 0 206.475V189.575C0 188.15 1.15 187 2.5625 187H19.3125C20.725 187 21.875 188.15 21.875 189.575ZM18.3125 201.425C18.3125 197.4 16.5125 194.137 16.5125 194.137C14.7125 192.787 13 192.825 13 192.825L12.825 193.025C14.95 193.675 15.9375 194.613 15.9375 194.613C12.9682 192.985 9.48027 192.985 6.6 194.25C6.1375 194.463 5.8625 194.613 5.8625 194.613C5.8625 194.613 6.9 193.625 9.15 192.975L9.025 192.825C9.025 192.825 7.3125 192.787 5.5125 194.137C5.5125 194.137 3.7125 197.4 3.7125 201.425C3.7125 201.425 4.7625 203.238 7.525 203.325C7.525 203.325 7.9875 202.763 8.3625 202.288C6.775 201.812 6.175 200.812 6.175 200.812C6.35889 200.941 6.66211 201.108 6.6875 201.125C8.79736 202.307 11.7943 202.694 14.4875 201.562C14.925 201.4 15.4125 201.162 15.925 200.825C15.925 200.825 15.3 201.85 13.6625 202.312C14.0375 202.788 14.4875 203.325 14.4875 203.325C17.25 203.238 18.3125 201.425 18.3125 201.425Z" fill="#5865F2"/>
</g>
<defs>
<clipPath id="clip0_467_512">
<rect width="21.875" height="211.666" fill="white" transform="translate(0 0.334473)"/>
</clipPath>
</defs>
</svg>
