<svg width="21" height="20" viewBox="0 0 21 20" fill="none" xmlns="http://www.w3.org/2000/svg">
<g clip-path="url(#clip0_271_122)">
<path d="M17.4201 15.4167C18.3562 15.4167 19.1135 14.6667 19.1135 13.7501L19.122 4.58341C19.122 3.66675 18.3562 2.91675 17.4201 2.91675H3.80512C2.86909 2.91675 2.10325 3.66675 2.10325 4.58341V13.7501C2.10325 14.6667 2.86909 15.4167 3.80512 15.4167H0.401367C0.401367 16.3334 1.16721 17.0834 2.10325 17.0834H19.122C20.0581 17.0834 20.8239 16.3334 20.8239 15.4167H17.4201ZM3.80512 4.58341H17.4201V13.7501H3.80512V4.58341ZM10.6126 16.2501C10.1446 16.2501 9.7617 15.8751 9.7617 15.4167C9.7617 14.9584 10.1446 14.5834 10.6126 14.5834C11.0807 14.5834 11.4636 14.9584 11.4636 15.4167C11.4636 15.8751 11.0807 16.2501 10.6126 16.2501Z" fill="white"/>
</g>
<defs>
<clipPath id="clip0_271_122">
<rect width="20.4225" height="20" fill="white" transform="translate(0.401367)"/>
</clipPath>
</defs>
</svg>
