<svg width="20" height="20" viewBox="0 0 20 20" fill="none" xmlns="http://www.w3.org/2000/svg">
<path d="M16.6667 15.4167C17.5833 15.4167 18.325 14.6667 18.325 13.7501L18.3333 4.58341C18.3333 3.66675 17.5833 2.91675 16.6667 2.91675H3.33333C2.41667 2.91675 1.66667 3.66675 1.66667 4.58341V13.7501C1.66667 14.6667 2.41667 15.4167 3.33333 15.4167H0C0 16.3334 0.75 17.0834 1.66667 17.0834H18.3333C19.25 17.0834 20 16.3334 20 15.4167H16.6667ZM3.33333 4.58341H16.6667V13.7501H3.33333V4.58341ZM10 16.2501C9.54167 16.2501 9.16667 15.8751 9.16667 15.4167C9.16667 14.9584 9.54167 14.5834 10 14.5834C10.4583 14.5834 10.8333 14.9584 10.8333 15.4167C10.8333 15.8751 10.4583 16.2501 10 16.2501Z" fill="white"/>
</svg>
